<svg width="1392" height="170" viewBox="0 0 1392 170" fill="none" xmlns="http://www.w3.org/2000/svg">
<rect x="97.125" y="43.5" width="5.63333" height="5.63333" rx="1.40833" fill="#E9E8E4" fill-opacity="0.6"></rect>
<rect x="126.562" y="43.5" width="5.63333" height="5.63333" rx="1.40833" fill="#E9E8E4" fill-opacity="0.6"></rect>
<rect x="8.8125" y="65.25" width="5.63333" height="5.63333" rx="1.40833" fill="#E9E8E4" fill-opacity="0.6"></rect>
<rect x="97.125" y="65.25" width="5.63333" height="5.63333" rx="1.40833" fill="#E9E8E4" fill-opacity="0.6"></rect>
<rect x="126.562" y="65.25" width="5.63333" height="5.63333" rx="1.40833" fill="#E9E8E4" fill-opacity="0.6"></rect>
<rect x="8.8125" y="87" width="5.63333" height="5.63333" rx="1.40833" fill="#E9E8E4" fill-opacity="0.6"></rect>
<rect x="38.25" y="87" width="5.63333" height="5.63333" rx="1.40833" fill="#E9E8E4" fill-opacity="0.6"></rect>
<rect x="97.125" y="87" width="5.63333" height="5.63333" rx="1.40833" fill="#E9E8E4" fill-opacity="0.6"></rect>
<rect x="126.562" y="87" width="5.63333" height="5.63333" rx="1.40833" fill="#E9E8E4" fill-opacity="0.6"></rect>
<rect x="8.8125" y="108.75" width="5.63333" height="5.63333" rx="1.40833" fill="#E9E8E4" fill-opacity="0.6"></rect>
<rect x="38.25" y="108.75" width="5.63333" height="5.63333" rx="1.40833" fill="#E9E8E4" fill-opacity="0.6"></rect>
<rect x="67.6875" y="108.75" width="5.63333" height="5.63333" rx="1.40833" fill="#E9E8E4" fill-opacity="0.6"></rect>
<rect x="97.125" y="108.75" width="5.63333" height="5.63333" rx="1.40833" fill="#E9E8E4" fill-opacity="0.6"></rect>
<rect x="126.562" y="108.75" width="5.63333" height="5.63333" rx="1.40833" fill="#E9E8E4" fill-opacity="0.6"></rect>
<rect x="8.8125" y="130.5" width="5.63333" height="5.63333" rx="1.40833" fill="#E9E8E4" fill-opacity="0.6"></rect>
<rect x="38.25" y="130.5" width="5.63333" height="5.63333" rx="1.40833" fill="#E9E8E4" fill-opacity="0.6"></rect>
<rect x="67.6875" y="130.5" width="5.63333" height="5.63333" rx="1.40833" fill="#E9E8E4" fill-opacity="0.6"></rect>
<rect x="97.125" y="130.5" width="5.63333" height="5.63333" rx="1.40833" fill="#E9E8E4" fill-opacity="0.6"></rect>
<rect x="126.562" y="130.5" width="5.63333" height="5.63333" rx="1.40833" fill="#E9E8E4" fill-opacity="0.6"></rect>
<rect x="8.8125" y="152.25" width="5.63333" height="5.63333" rx="1.40833" fill="#E9E8E4" fill-opacity="0.6"></rect>
<rect x="38.25" y="152.25" width="5.63333" height="5.63333" rx="1.40833" fill="#E9E8E4" fill-opacity="0.6"></rect>
<rect x="67.6875" y="152.25" width="5.63333" height="5.63333" rx="1.40833" fill="#E9E8E4" fill-opacity="0.6"></rect>
<rect x="97.125" y="152.25" width="5.63333" height="5.63333" rx="1.40833" fill="#E9E8E4" fill-opacity="0.6"></rect>
<rect x="126.562" y="152.25" width="5.63333" height="5.63333" rx="1.40833" fill="#E9E8E4" fill-opacity="0.6"></rect>
<rect x="126.562" y="21.75" width="5.63333" height="5.63333" rx="1.40833" fill="#E9E8E4" fill-opacity="0.6"></rect>
<rect x="597.562" width="5.63333" height="5.63333" rx="1.40833" fill="#E9E8E4" fill-opacity="0.6"></rect>
<rect x="332.625" y="43.5" width="5.63333" height="5.63333" rx="1.40833" fill="#E9E8E4" fill-opacity="0.6"></rect>
<rect x="568.125" y="43.5" width="5.63333" height="5.63333" rx="1.40833" fill="#E9E8E4" fill-opacity="0.6"></rect>
<rect x="597.562" y="43.5" width="5.63333" height="5.63333" rx="1.40833" fill="#E9E8E4" fill-opacity="0.6"></rect>
<rect x="156" y="65.25" width="5.63333" height="5.63333" rx="1.40833" fill="#E9E8E4" fill-opacity="0.6"></rect>
<rect x="214.875" y="65.25" width="5.63333" height="5.63333" rx="1.40833" fill="#E9E8E4" fill-opacity="0.6"></rect>
<rect x="303.188" y="65.25" width="5.63333" height="5.63333" rx="1.40833" fill="#E9E8E4" fill-opacity="0.6"></rect>
<rect x="332.625" y="65.25" width="5.63333" height="5.63333" rx="1.40833" fill="#E9E8E4" fill-opacity="0.6"></rect>
<rect x="420.938" y="65.25" width="5.63333" height="5.63333" rx="1.40833" fill="#E9E8E4" fill-opacity="0.6"></rect>
<rect x="479.812" y="65.25" width="5.63333" height="5.63333" rx="1.40833" fill="#E9E8E4" fill-opacity="0.6"></rect>
<rect x="568.125" y="65.25" width="5.63333" height="5.63333" rx="1.40833" fill="#E9E8E4" fill-opacity="0.6"></rect>
<rect x="597.562" y="65.25" width="5.63333" height="5.63333" rx="1.40833" fill="#E9E8E4" fill-opacity="0.6"></rect>
<rect x="156" y="87" width="5.63333" height="5.63333" rx="1.40833" fill="#E9E8E4" fill-opacity="0.6"></rect>
<rect x="214.875" y="87" width="5.63333" height="5.63333" rx="1.40833" fill="#E9E8E4" fill-opacity="0.6"></rect>
<rect x="244.312" y="87" width="5.63333" height="5.63333" rx="1.40833" fill="#E9E8E4" fill-opacity="0.6"></rect>
<rect x="303.188" y="87" width="5.63333" height="5.63333" rx="1.40833" fill="#E9E8E4" fill-opacity="0.6"></rect>
<rect x="332.625" y="87" width="5.63333" height="5.63333" rx="1.40833" fill="#E9E8E4" fill-opacity="0.6"></rect>
<rect x="420.938" y="87" width="5.63333" height="5.63333" rx="1.40833" fill="#E9E8E4" fill-opacity="0.6"></rect>
<rect x="450.375" y="87" width="5.63333" height="5.63333" rx="1.40833" fill="#E9E8E4" fill-opacity="0.6"></rect>
<rect x="479.812" y="87" width="5.63333" height="5.63333" rx="1.40833" fill="#E9E8E4" fill-opacity="0.6"></rect>
<rect x="509.25" y="87" width="5.63333" height="5.63333" rx="1.40833" fill="#E9E8E4" fill-opacity="0.6"></rect>
<rect x="568.125" y="87" width="5.63333" height="5.63333" rx="1.40833" fill="#E9E8E4" fill-opacity="0.6"></rect>
<rect x="597.562" y="87" width="5.63333" height="5.63333" rx="1.40833" fill="#E9E8E4" fill-opacity="0.6"></rect>
<rect x="185.438" y="108.75" width="5.63333" height="5.63333" rx="1.40833" fill="#E9E8E4" fill-opacity="0.6"></rect>
<rect x="214.875" y="108.75" width="5.63333" height="5.63333" rx="1.40833" fill="#E9E8E4" fill-opacity="0.6"></rect>
<rect x="244.312" y="108.75" width="5.63333" height="5.63333" rx="1.40833" fill="#E9E8E4" fill-opacity="0.6"></rect>
<rect x="303.188" y="108.75" width="5.63333" height="5.63333" rx="1.40833" fill="#E9E8E4" fill-opacity="0.6"></rect>
<rect x="332.625" y="108.75" width="5.63333" height="5.63333" rx="1.40833" fill="#E9E8E4" fill-opacity="0.6"></rect>
<rect x="362.062" y="108.75" width="5.63333" height="5.63333" rx="1.40833" fill="#E9E8E4" fill-opacity="0.6"></rect>
<rect x="391.5" y="108.75" width="5.63333" height="5.63333" rx="1.40833" fill="#E9E8E4" fill-opacity="0.6"></rect>
<rect x="420.938" y="108.75" width="5.63333" height="5.63333" rx="1.40833" fill="#E9E8E4" fill-opacity="0.6"></rect>
<rect x="479.812" y="108.75" width="5.63333" height="5.63333" rx="1.40833" fill="#E9E8E4" fill-opacity="0.6"></rect>
<rect x="509.25" y="108.75" width="5.63333" height="5.63333" rx="1.40833" fill="#E9E8E4" fill-opacity="0.6"></rect>
<rect x="538.688" y="108.75" width="5.63333" height="5.63333" rx="1.40833" fill="#E9E8E4" fill-opacity="0.6"></rect>
<rect x="568.125" y="108.75" width="5.63333" height="5.63333" rx="1.40833" fill="#E9E8E4" fill-opacity="0.6"></rect>
<rect x="597.562" y="108.75" width="5.63333" height="5.63333" rx="1.40833" fill="#E9E8E4" fill-opacity="0.6"></rect>
<rect x="156" y="130.5" width="5.63333" height="5.63333" rx="1.40833" fill="#E9E8E4" fill-opacity="0.6"></rect>
<rect x="185.438" y="130.5" width="5.63333" height="5.63333" rx="1.40833" fill="#E9E8E4" fill-opacity="0.6"></rect>
<rect x="214.875" y="130.5" width="5.63333" height="5.63333" rx="1.40833" fill="#E9E8E4" fill-opacity="0.6"></rect>
<rect x="244.312" y="130.5" width="5.63333" height="5.63333" rx="1.40833" fill="#E9E8E4" fill-opacity="0.6"></rect>
<rect x="273.75" y="130.5" width="5.63333" height="5.63333" rx="1.40833" fill="#E9E8E4" fill-opacity="0.6"></rect>
<rect x="303.188" y="130.5" width="5.63333" height="5.63333" rx="1.40833" fill="#E9E8E4" fill-opacity="0.6"></rect>
<rect x="332.625" y="130.5" width="5.63333" height="5.63333" rx="1.40833" fill="#E9E8E4" fill-opacity="0.6"></rect>
<rect x="362.062" y="130.5" width="5.63333" height="5.63333" rx="1.40833" fill="#E9E8E4" fill-opacity="0.6"></rect>
<rect x="391.5" y="130.5" width="5.63333" height="5.63333" rx="1.40833" fill="#E9E8E4" fill-opacity="0.6"></rect>
<rect x="420.938" y="130.5" width="5.63333" height="5.63333" rx="1.40833" fill="#E9E8E4" fill-opacity="0.6"></rect>
<rect x="450.375" y="130.5" width="5.63333" height="5.63333" rx="1.40833" fill="#E9E8E4" fill-opacity="0.6"></rect>
<rect x="479.812" y="130.5" width="5.63333" height="5.63333" rx="1.40833" fill="#E9E8E4" fill-opacity="0.6"></rect>
<rect x="509.25" y="130.5" width="5.63333" height="5.63333" rx="1.40833" fill="#E9E8E4" fill-opacity="0.6"></rect>
<rect x="538.688" y="130.5" width="5.63333" height="5.63333" rx="1.40833" fill="#E9E8E4" fill-opacity="0.6"></rect>
<rect x="568.125" y="130.5" width="5.63333" height="5.63333" rx="1.40833" fill="#E9E8E4" fill-opacity="0.6"></rect>
<rect x="597.562" y="130.5" width="5.63333" height="5.63333" rx="1.40833" fill="#E9E8E4" fill-opacity="0.6"></rect>
<rect x="156" y="152.25" width="5.63333" height="5.63333" rx="1.40833" fill="#E9E8E4" fill-opacity="0.6"></rect>
<rect x="185.438" y="152.25" width="5.63333" height="5.63333" rx="1.40833" fill="#E9E8E4" fill-opacity="0.6"></rect>
<rect x="244.312" y="152.25" width="5.63333" height="5.63333" rx="1.40833" fill="#E9E8E4" fill-opacity="0.6"></rect>
<rect x="273.75" y="152.25" width="5.63333" height="5.63333" rx="1.40833" fill="#E9E8E4" fill-opacity="0.6"></rect>
<rect x="303.188" y="152.25" width="5.63333" height="5.63333" rx="1.40833" fill="#E9E8E4" fill-opacity="0.6"></rect>
<rect x="332.625" y="152.25" width="5.63333" height="5.63333" rx="1.40833" fill="#E9E8E4" fill-opacity="0.6"></rect>
<rect x="362.062" y="152.25" width="5.63333" height="5.63333" rx="1.40833" fill="#E9E8E4" fill-opacity="0.6"></rect>
<rect x="391.5" y="152.25" width="5.63333" height="5.63333" rx="1.40833" fill="#E9E8E4" fill-opacity="0.6"></rect>
<rect x="420.938" y="152.25" width="5.63333" height="5.63333" rx="1.40833" fill="#E9E8E4" fill-opacity="0.6"></rect>
<rect x="450.375" y="152.25" width="5.63333" height="5.63333" rx="1.40833" fill="#E9E8E4" fill-opacity="0.6"></rect>
<rect x="479.812" y="152.25" width="5.63333" height="5.63333" rx="1.40833" fill="#E9E8E4" fill-opacity="0.6"></rect>
<rect x="509.25" y="152.25" width="5.63333" height="5.63333" rx="1.40833" fill="#E9E8E4" fill-opacity="0.6"></rect>
<rect x="538.688" y="152.25" width="5.63333" height="5.63333" rx="1.40833" fill="#E9E8E4" fill-opacity="0.6"></rect>
<rect x="568.125" y="152.25" width="5.63333" height="5.63333" rx="1.40833" fill="#E9E8E4" fill-opacity="0.6"></rect>
<rect x="597.562" y="152.25" width="5.63333" height="5.63333" rx="1.40833" fill="#E9E8E4" fill-opacity="0.6"></rect>
<rect x="597.562" y="21.75" width="5.63333" height="5.63333" rx="1.40833" fill="#E9E8E4" fill-opacity="0.6"></rect>
<rect x="450.375" y="108.75" width="5.63333" height="5.63333" rx="1.40833" fill="#E9E8E4" fill-opacity="0.6"></rect>
<rect x="627" width="5.63333" height="5.63333" rx="1.40833" fill="#E9E8E4" fill-opacity="0.6"></rect>
<rect x="1067.62" width="5.63333" height="5.63333" rx="1.40833" fill="#E9E8E4" fill-opacity="0.6"></rect>
<rect x="803.25" y="43.5" width="5.63333" height="5.63333" rx="1.40833" fill="#E9E8E4" fill-opacity="0.6"></rect>
<rect x="1038.25" y="43.5" width="5.63333" height="5.63333" rx="1.40833" fill="#E9E8E4" fill-opacity="0.6"></rect>
<rect x="1067.62" y="43.5" width="5.63333" height="5.63333" rx="1.40833" fill="#E9E8E4" fill-opacity="0.6"></rect>
<rect x="627" y="65.25" width="5.63333" height="5.63333" rx="1.40833" fill="#E9E8E4" fill-opacity="0.6"></rect>
<rect x="685.75" y="65.25" width="5.63333" height="5.63333" rx="1.40833" fill="#E9E8E4" fill-opacity="0.6"></rect>
<rect x="773.875" y="65.25" width="5.63333" height="5.63333" rx="1.40833" fill="#E9E8E4" fill-opacity="0.6"></rect>
<rect x="803.25" y="65.25" width="5.63333" height="5.63333" rx="1.40833" fill="#E9E8E4" fill-opacity="0.6"></rect>
<rect x="891.375" y="65.25" width="5.63333" height="5.63333" rx="1.40833" fill="#E9E8E4" fill-opacity="0.6"></rect>
<rect x="950.125" y="65.25" width="5.63333" height="5.63333" rx="1.40833" fill="#E9E8E4" fill-opacity="0.6"></rect>
<rect x="1038.25" y="65.25" width="5.63333" height="5.63333" rx="1.40833" fill="#E9E8E4" fill-opacity="0.6"></rect>
<rect x="1067.62" y="65.25" width="5.63333" height="5.63333" rx="1.40833" fill="#E9E8E4" fill-opacity="0.6"></rect>
<rect x="627" y="87" width="5.63333" height="5.63333" rx="1.40833" fill="#E9E8E4" fill-opacity="0.6"></rect>
<rect x="685.75" y="87" width="5.63333" height="5.63333" rx="1.40833" fill="#E9E8E4" fill-opacity="0.6"></rect>
<rect x="715.125" y="87" width="5.63333" height="5.63333" rx="1.40833" fill="#E9E8E4" fill-opacity="0.6"></rect>
<rect x="773.875" y="87" width="5.63333" height="5.63333" rx="1.40833" fill="#E9E8E4" fill-opacity="0.6"></rect>
<rect x="891.375" y="87" width="5.63333" height="5.63333" rx="1.40833" fill="#E9E8E4" fill-opacity="0.6"></rect>
<rect x="920.75" y="87" width="5.63333" height="5.63333" rx="1.40833" fill="#E9E8E4" fill-opacity="0.6"></rect>
<rect x="950.125" y="87" width="5.63333" height="5.63333" rx="1.40833" fill="#E9E8E4" fill-opacity="0.6"></rect>
<rect x="979.5" y="87" width="5.63333" height="5.63333" rx="1.40833" fill="#E9E8E4" fill-opacity="0.6"></rect>
<rect x="1038.25" y="87" width="5.63333" height="5.63333" rx="1.40833" fill="#E9E8E4" fill-opacity="0.6"></rect>
<rect x="1067.62" y="87" width="5.63333" height="5.63333" rx="1.40833" fill="#E9E8E4" fill-opacity="0.6"></rect>
<rect x="656.375" y="108.75" width="5.63333" height="5.63333" rx="1.40833" fill="#E9E8E4" fill-opacity="0.6"></rect>
<rect x="685.75" y="108.75" width="5.63333" height="5.63333" rx="1.40833" fill="#E9E8E4" fill-opacity="0.6"></rect>
<rect x="715.125" y="108.75" width="5.63333" height="5.63333" rx="1.40833" fill="#E9E8E4" fill-opacity="0.6"></rect>
<rect x="773.875" y="108.75" width="5.63333" height="5.63333" rx="1.40833" fill="#E9E8E4" fill-opacity="0.6"></rect>
<rect x="803.25" y="108.75" width="5.63333" height="5.63333" rx="1.40833" fill="#E9E8E4" fill-opacity="0.6"></rect>
<rect x="832.625" y="108.75" width="5.63333" height="5.63333" rx="1.40833" fill="#E9E8E4" fill-opacity="0.6"></rect>
<rect x="862" y="108.75" width="5.63333" height="5.63333" rx="1.40833" fill="#E9E8E4" fill-opacity="0.6"></rect>
<rect x="891.375" y="108.75" width="5.63333" height="5.63333" rx="1.40833" fill="#E9E8E4" fill-opacity="0.6"></rect>
<rect x="950.125" y="108.75" width="5.63333" height="5.63333" rx="1.40833" fill="#E9E8E4" fill-opacity="0.6"></rect>
<rect x="979.5" y="108.75" width="5.63333" height="5.63333" rx="1.40833" fill="#E9E8E4" fill-opacity="0.6"></rect>
<rect x="1008.88" y="108.75" width="5.63333" height="5.63333" rx="1.40833" fill="#E9E8E4" fill-opacity="0.6"></rect>
<rect x="1038.25" y="108.75" width="5.63333" height="5.63333" rx="1.40833" fill="#E9E8E4" fill-opacity="0.6"></rect>
<rect x="1067.62" y="108.75" width="5.63333" height="5.63333" rx="1.40833" fill="#E9E8E4" fill-opacity="0.6"></rect>
<rect x="627" y="130.5" width="5.63333" height="5.63333" rx="1.40833" fill="#E9E8E4" fill-opacity="0.6"></rect>
<rect x="656.375" y="130.5" width="5.63333" height="5.63333" rx="1.40833" fill="#E9E8E4" fill-opacity="0.6"></rect>
<rect x="685.75" y="130.5" width="5.63333" height="5.63333" rx="1.40833" fill="#E9E8E4" fill-opacity="0.6"></rect>
<rect x="715.125" y="130.5" width="5.63333" height="5.63333" rx="1.40833" fill="#E9E8E4" fill-opacity="0.6"></rect>
<rect x="744.5" y="130.5" width="5.63333" height="5.63333" rx="1.40833" fill="#E9E8E4" fill-opacity="0.6"></rect>
<rect x="773.875" y="130.5" width="5.63333" height="5.63333" rx="1.40833" fill="#E9E8E4" fill-opacity="0.6"></rect>
<rect x="803.25" y="130.5" width="5.63333" height="5.63333" rx="1.40833" fill="#E9E8E4" fill-opacity="0.6"></rect>
<rect x="832.625" y="130.5" width="5.63333" height="5.63333" rx="1.40833" fill="#E9E8E4" fill-opacity="0.6"></rect>
<rect x="862" y="130.5" width="5.63333" height="5.63333" rx="1.40833" fill="#E9E8E4" fill-opacity="0.6"></rect>
<rect x="891.375" y="130.5" width="5.63333" height="5.63333" rx="1.40833" fill="#E9E8E4" fill-opacity="0.6"></rect>
<rect x="920.75" y="130.5" width="5.63333" height="5.63333" rx="1.40833" fill="#E9E8E4" fill-opacity="0.6"></rect>
<rect x="950.125" y="130.5" width="5.63333" height="5.63333" rx="1.40833" fill="#E9E8E4" fill-opacity="0.6"></rect>
<rect x="979.5" y="130.5" width="5.63333" height="5.63333" rx="1.40833" fill="#E9E8E4" fill-opacity="0.6"></rect>
<rect x="1008.88" y="130.5" width="5.63333" height="5.63333" rx="1.40833" fill="#E9E8E4" fill-opacity="0.6"></rect>
<rect x="1038.25" y="130.5" width="5.63333" height="5.63333" rx="1.40833" fill="#E9E8E4" fill-opacity="0.6"></rect>
<rect x="1067.62" y="130.5" width="5.63333" height="5.63333" rx="1.40833" fill="#E9E8E4" fill-opacity="0.6"></rect>
<rect x="627" y="152.25" width="5.63333" height="5.63333" rx="1.40833" fill="#E9E8E4" fill-opacity="0.6"></rect>
<rect x="656.375" y="152.25" width="5.63333" height="5.63333" rx="1.40833" fill="#E9E8E4" fill-opacity="0.6"></rect>
<rect x="715.125" y="152.25" width="5.63333" height="5.63333" rx="1.40833" fill="#E9E8E4" fill-opacity="0.6"></rect>
<rect x="744.5" y="152.25" width="5.63333" height="5.63333" rx="1.40833" fill="#E9E8E4" fill-opacity="0.6"></rect>
<rect x="773.875" y="152.25" width="5.63333" height="5.63333" rx="1.40833" fill="#E9E8E4" fill-opacity="0.6"></rect>
<rect x="803.25" y="152.25" width="5.63333" height="5.63333" rx="1.40833" fill="#E9E8E4" fill-opacity="0.6"></rect>
<rect x="832.625" y="152.25" width="5.63333" height="5.63333" rx="1.40833" fill="#E9E8E4" fill-opacity="0.6"></rect>
<rect x="862" y="152.25" width="5.63333" height="5.63333" rx="1.40833" fill="#E9E8E4" fill-opacity="0.6"></rect>
<rect x="891.375" y="152.25" width="5.63333" height="5.63333" rx="1.40833" fill="#E9E8E4" fill-opacity="0.6"></rect>
<rect x="920.75" y="152.25" width="5.63333" height="5.63333" rx="1.40833" fill="#E9E8E4" fill-opacity="0.6"></rect>
<rect x="950.125" y="152.25" width="5.63333" height="5.63333" rx="1.40833" fill="#E9E8E4" fill-opacity="0.6"></rect>
<rect x="979.5" y="152.25" width="5.63333" height="5.63333" rx="1.40833" fill="#E9E8E4" fill-opacity="0.6"></rect>
<rect x="1008.88" y="152.25" width="5.63333" height="5.63333" rx="1.40833" fill="#E9E8E4" fill-opacity="0.6"></rect>
<rect x="1038.25" y="152.25" width="5.63333" height="5.63333" rx="1.40833" fill="#E9E8E4" fill-opacity="0.6"></rect>
<rect x="1067.62" y="152.25" width="5.63333" height="5.63333" rx="1.40833" fill="#E9E8E4" fill-opacity="0.6"></rect>
<rect x="1067.62" y="21.75" width="5.63333" height="5.63333" rx="1.40833" fill="#E9E8E4" fill-opacity="0.6"></rect>
<rect x="920.75" y="108.75" width="5.63333" height="5.63333" rx="1.40833" fill="#E9E8E4" fill-opacity="0.6"></rect>
<rect x="803.25" y="87" width="5.63333" height="5.63333" rx="1.40833" fill="#E9E8E4" fill-opacity="0.6"></rect>
<rect x="1273.62" y="43.5" width="5.63333" height="5.63333" rx="1.40833" fill="#E9E8E4" fill-opacity="0.6"></rect>
<rect x="1155.88" y="65.25" width="5.63333" height="5.63333" rx="1.40833" fill="#E9E8E4" fill-opacity="0.6"></rect>
<rect x="1244.19" y="65.25" width="5.63333" height="5.63333" rx="1.40833" fill="#E9E8E4" fill-opacity="0.6"></rect>
<rect x="1273.62" y="65.25" width="5.63333" height="5.63333" rx="1.40833" fill="#E9E8E4" fill-opacity="0.6"></rect>
<rect x="1361.94" y="65.25" width="5.63333" height="5.63333" rx="1.40833" fill="#E9E8E4" fill-opacity="0.6"></rect>
<rect x="1155.88" y="87" width="5.63333" height="5.63333" rx="1.40833" fill="#E9E8E4" fill-opacity="0.6"></rect>
<rect x="1185.31" y="87" width="5.63333" height="5.63333" rx="1.40833" fill="#E9E8E4" fill-opacity="0.6"></rect>
<rect x="1244.19" y="87" width="5.63333" height="5.63333" rx="1.40833" fill="#E9E8E4" fill-opacity="0.6"></rect>
<rect x="1273.62" y="87" width="5.63333" height="5.63333" rx="1.40833" fill="#E9E8E4" fill-opacity="0.6"></rect>
<rect x="1361.94" y="87" width="5.63333" height="5.63333" rx="1.40833" fill="#E9E8E4" fill-opacity="0.6"></rect>
<rect x="1391.38" y="87" width="5.63333" height="5.63333" rx="1.40833" fill="#E9E8E4" fill-opacity="0.6"></rect>
<rect x="1126.44" y="108.75" width="5.63333" height="5.63333" rx="1.40833" fill="#E9E8E4" fill-opacity="0.6"></rect>
<rect x="1155.88" y="108.75" width="5.63333" height="5.63333" rx="1.40833" fill="#E9E8E4" fill-opacity="0.6"></rect>
<rect x="1185.31" y="108.75" width="5.63333" height="5.63333" rx="1.40833" fill="#E9E8E4" fill-opacity="0.6"></rect>
<rect x="1244.19" y="108.75" width="5.63333" height="5.63333" rx="1.40833" fill="#E9E8E4" fill-opacity="0.6"></rect>
<rect x="1273.62" y="108.75" width="5.63333" height="5.63333" rx="1.40833" fill="#E9E8E4" fill-opacity="0.6"></rect>
<rect x="1303.06" y="108.75" width="5.63333" height="5.63333" rx="1.40833" fill="#E9E8E4" fill-opacity="0.6"></rect>
<rect x="1332.5" y="108.75" width="5.63333" height="5.63333" rx="1.40833" fill="#E9E8E4" fill-opacity="0.6"></rect>
<rect x="1361.94" y="108.75" width="5.63333" height="5.63333" rx="1.40833" fill="#E9E8E4" fill-opacity="0.6"></rect>
<rect x="1097" y="130.5" width="5.63333" height="5.63333" rx="1.40833" fill="#E9E8E4" fill-opacity="0.6"></rect>
<rect x="1126.44" y="130.5" width="5.63333" height="5.63333" rx="1.40833" fill="#E9E8E4" fill-opacity="0.6"></rect>
<rect x="1155.88" y="130.5" width="5.63333" height="5.63333" rx="1.40833" fill="#E9E8E4" fill-opacity="0.6"></rect>
<rect x="1185.31" y="130.5" width="5.63333" height="5.63333" rx="1.40833" fill="#E9E8E4" fill-opacity="0.6"></rect>
<rect x="1214.75" y="130.5" width="5.63333" height="5.63333" rx="1.40833" fill="#E9E8E4" fill-opacity="0.6"></rect>
<rect x="1244.19" y="130.5" width="5.63333" height="5.63333" rx="1.40833" fill="#E9E8E4" fill-opacity="0.6"></rect>
<rect x="1273.62" y="130.5" width="5.63333" height="5.63333" rx="1.40833" fill="#E9E8E4" fill-opacity="0.6"></rect>
<rect x="1303.06" y="130.5" width="5.63333" height="5.63333" rx="1.40833" fill="#E9E8E4" fill-opacity="0.6"></rect>
<rect x="1332.5" y="130.5" width="5.63333" height="5.63333" rx="1.40833" fill="#E9E8E4" fill-opacity="0.6"></rect>
<rect x="1361.94" y="130.5" width="5.63333" height="5.63333" rx="1.40833" fill="#E9E8E4" fill-opacity="0.6"></rect>
<rect x="1391.38" y="130.5" width="5.63333" height="5.63333" rx="1.40833" fill="#E9E8E4" fill-opacity="0.6"></rect>
<rect x="1097" y="152.25" width="5.63333" height="5.63333" rx="1.40833" fill="#E9E8E4" fill-opacity="0.6"></rect>
<rect x="1126.44" y="152.25" width="5.63333" height="5.63333" rx="1.40833" fill="#E9E8E4" fill-opacity="0.6"></rect>
<rect x="1185.31" y="152.25" width="5.63333" height="5.63333" rx="1.40833" fill="#E9E8E4" fill-opacity="0.6"></rect>
<rect x="1214.75" y="152.25" width="5.63333" height="5.63333" rx="1.40833" fill="#E9E8E4" fill-opacity="0.6"></rect>
<rect x="1244.19" y="152.25" width="5.63333" height="5.63333" rx="1.40833" fill="#E9E8E4" fill-opacity="0.6"></rect>
<rect x="1273.62" y="152.25" width="5.63333" height="5.63333" rx="1.40833" fill="#E9E8E4" fill-opacity="0.6"></rect>
<rect x="1303.06" y="152.25" width="5.63333" height="5.63333" rx="1.40833" fill="#E9E8E4" fill-opacity="0.6"></rect>
<rect x="1332.5" y="152.25" width="5.63333" height="5.63333" rx="1.40833" fill="#E9E8E4" fill-opacity="0.6"></rect>
<rect x="1361.94" y="152.25" width="5.63333" height="5.63333" rx="1.40833" fill="#E9E8E4" fill-opacity="0.6"></rect>
<rect x="1391.38" y="152.25" width="5.63333" height="5.63333" rx="1.40833" fill="#E9E8E4" fill-opacity="0.6"></rect>
<rect x="1391.38" y="108.75" width="5.63333" height="5.63333" rx="1.40833" fill="#E9E8E4" fill-opacity="0.6"></rect>
</svg>