<?xml version="1.0"?>
<svg id="Logo" xmlns="http://www.w3.org/2000/svg" version="1.1" viewBox="0 0 650.1 110">
  
  
  <defs>
    
  </defs>
  <path fill="#0E2240" class="st0" d="M10.4,78H2.6c-1.4,0-2.6,1.2-2.6,2.6v7.8c0,1.4,1.2,2.6,2.6,2.6h7.8c1.4,0,2.6-1.2,2.6-2.6v-7.8c0-1.4-1.2-2.6-2.6-2.6Z"></path>
  <path fill="#0E2240" class="st0" d="M29.9,78h-7.8c-1.4,0-2.6,1.2-2.6,2.6v7.8c0,1.4,1.2,2.6,2.6,2.6h7.8c1.4,0,2.6-1.2,2.6-2.6v-7.8c0-1.4-1.2-2.6-2.6-2.6Z"></path>
  <path fill="#0E2240" class="st0" d="M49.4,78h-7.8c-1.4,0-2.6,1.2-2.6,2.6v7.8c0,1.4,1.2,2.6,2.6,2.6h7.8c1.4,0,2.6-1.2,2.6-2.6v-7.8c0-1.4-1.2-2.6-2.6-2.6Z"></path>
  <path fill="#0E2240" class="st0" d="M68.9,78h-7.8c-1.4,0-2.6,1.2-2.6,2.6v7.8c0,1.4,1.2,2.6,2.6,2.6h7.8c1.4,0,2.6-1.2,2.6-2.6v-7.8c0-1.4-1.2-2.6-2.6-2.6Z"></path>
  <path fill="#0E2240" class="st0" d="M88.4,78h-7.8c-1.4,0-2.6,1.2-2.6,2.6v7.8c0,1.4,1.2,2.6,2.6,2.6h7.8c1.4,0,2.6-1.2,2.6-2.6v-7.8c0-1.4-1.2-2.6-2.6-2.6Z"></path>
  <path fill="#0E2240" class="st0" d="M10.4,58.5H2.6c-1.4,0-2.6,1.2-2.6,2.6v7.8c0,1.4,1.2,2.6,2.6,2.6h7.8c1.4,0,2.6-1.2,2.6-2.6v-7.8c0-1.4-1.2-2.6-2.6-2.6Z"></path>
  <path fill="#0E2240" class="st0" d="M49.4,58.5h-7.8c-1.4,0-2.6,1.2-2.6,2.6v7.8c0,1.4,1.2,2.6,2.6,2.6h7.8c1.4,0,2.6-1.2,2.6-2.6v-7.8c0-1.4-1.2-2.6-2.6-2.6Z"></path>
  <path fill="#0E2240" class="st0" d="M68.9,58.5h-7.8c-1.4,0-2.6,1.2-2.6,2.6v7.8c0,1.4,1.2,2.6,2.6,2.6h7.8c1.4,0,2.6-1.2,2.6-2.6v-7.8c0-1.4-1.2-2.6-2.6-2.6Z"></path>
  <path fill="#0E2240" class="st0" d="M88.4,58.5h-7.8c-1.4,0-2.6,1.2-2.6,2.6v7.8c0,1.4,1.2,2.6,2.6,2.6h7.8c1.4,0,2.6-1.2,2.6-2.6v-7.8c0-1.4-1.2-2.6-2.6-2.6Z"></path>
  <path fill="#0E2240" class="st0" d="M10.4,39H2.6c-1.4,0-2.6,1.2-2.6,2.6v7.8c0,1.4,1.2,2.6,2.6,2.6h7.8c1.4,0,2.6-1.2,2.6-2.6v-7.8c0-1.4-1.2-2.6-2.6-2.6Z"></path>
  <path fill="#0E2240" class="st0" d="M29.9,39h-7.8c-1.4,0-2.6,1.2-2.6,2.6v7.8c0,1.4,1.2,2.6,2.6,2.6h7.8c1.4,0,2.6-1.2,2.6-2.6v-7.8c0-1.4-1.2-2.6-2.6-2.6Z"></path>
  <path fill="#0E2240" class="st0" d="M88.4,39h-7.8c-1.4,0-2.6,1.2-2.6,2.6v7.8c0,1.4,1.2,2.6,2.6,2.6h7.8c1.4,0,2.6-1.2,2.6-2.6v-7.8c0-1.4-1.2-2.6-2.6-2.6Z"></path>
  <path fill="#0E2240" class="st0" d="M10.4,19.5H2.6c-1.4,0-2.6,1.2-2.6,2.6v7.8c0,1.4,1.2,2.6,2.6,2.6h7.8c1.4,0,2.6-1.2,2.6-2.6v-7.8c0-1.4-1.2-2.6-2.6-2.6Z"></path>
  <path fill="#0E2240" class="st0" d="M49.4,19.5h-7.8c-1.4,0-2.6,1.2-2.6,2.6v7.8c0,1.4,1.2,2.6,2.6,2.6h7.8c1.4,0,2.6-1.2,2.6-2.6v-7.8c0-1.4-1.2-2.6-2.6-2.6Z"></path>
  <path fill="#0E2240" class="st0" d="M68.9,19.5h-7.8c-1.4,0-2.6,1.2-2.6,2.6v7.8c0,1.4,1.2,2.6,2.6,2.6h7.8c1.4,0,2.6-1.2,2.6-2.6v-7.8c0-1.4-1.2-2.6-2.6-2.6Z"></path>
  <path fill="#0E2240" class="st0" d="M29.9,0h-7.8c-1.4,0-2.6,1.2-2.6,2.6v7.8c0,1.4,1.2,2.6,2.6,2.6h7.8c1.4,0,2.6-1.2,2.6-2.6V2.6c0-1.4-1.2-2.6-2.6-2.6Z"></path>
  <path fill="#0E2240" class="st0" d="M68.9,0h-7.8c-1.4,0-2.6,1.2-2.6,2.6v7.8c0,1.4,1.2,2.6,2.6,2.6h7.8c1.4,0,2.6-1.2,2.6-2.6V2.6c0-1.4-1.2-2.6-2.6-2.6Z"></path>
  <path fill="#0E2240" class="st0" d="M126,108.8V38.4h9.7v6.8c3-4.3,9-8.4,17.2-8.4,15,0,24.7,11.8,24.7,27.6s-9.9,27.5-24.4,27.5-14.3-3.3-17.4-7.8c0,.3.2,6,.2,12.3v12.3h-10.1ZM151.2,83.7c9.9,0,15.6-7.6,15.6-19.2s-5.8-19.3-15.6-19.3-15.6,8.1-15.6,19.3,5.8,19.2,15.6,19.2Z"></path>
  <path fill="#0E2240" class="st0" d="M201.4,92.1c-12.2,0-18.3-7.5-18.3-21.1v-32.6h10.1v28.8c0,10.3,3.4,16.5,11.6,16.5s12.7-9.8,12.7-21.3v-24h10.1v44.5c0,2.7,0,5.3.1,7.9h-9.7v-7.5c-2.7,4.5-7.8,8.8-16.7,8.8Z"></path>
  <path fill="#0E2240" class="st0" d="M264.7,92c-9,0-14.8-4-17.9-8.6v7.4h-9.5V19.5h10.2v15.4c0,3.6,0,6.6-.1,10.3,3-4.3,8.8-8.3,17.1-8.3,14.9,0,24.6,11.8,24.6,27.6s-10,27.5-24.5,27.5ZM262.7,83.7c9.8,0,15.5-7.6,15.5-19.2s-5.8-19.3-15.6-19.3-15.6,8.1-15.6,19.3,5.8,19.2,15.7,19.2Z"></path>
  <path fill="#0E2240" class="st0" d="M296.1,90.8V19.5h10.1v71.3h-10.1Z"></path>
  <path fill="#0E2240" class="st0" d="M316.4,30.9v-11.4h10.5v11.4h-10.5ZM316.6,90.8v-52.4h10.1v52.4h-10.1Z"></path>
  <path fill="#0E2240" class="st0" d="M330.6,90.8l19.1-26.5-18.1-25.8h12l12,18.2,12-18.2h11.3l-9,12.5-4.1,5.7h-10.3l24.8,34.2h-12l-13.1-20-13.4,20h-11.2Z"></path>
  <path fill="#0E2240" class="st0" d="M424.6,110c-13.1,0-21.1-6.9-23.9-17.3h10.6c1.8,4.8,5.6,9.1,13.4,9.1,12,0,16.3-7.5,16.3-21.7,0,0,0,0-.2,0-2.6,4.5-8.4,8.5-17.7,8.5-14.8,0-24.3-10.7-24.3-25.6s10.2-26,24.4-26,14.6,3.9,17.7,8.2c-.1-1.1-.1-2.2-.1-3.3v-3.3h10v42.3c0,19-8.7,29.2-26.4,29.2ZM425.6,80.3c8.8,0,15.6-6.2,15.6-17.8s-6-17.2-15.6-17.2-15.5,6.9-15.5,17.5,5.7,17.5,15.5,17.5Z"></path>
  <path fill="#0E2240" class="st0" d="M460.3,90.8v-43c0-3.3,0-6.2-.1-9.4h9.7v6.7c1.7-4.9,6.8-8,12.7-8s1.9,0,2.6.2v9.2c-.9-.2-2.4-.3-3.5-.3-9.5,0-11.3,7-11.3,17.5v27.1h-10.1Z"></path>
  <path fill="#0E2240" class="st0" d="M512,92.1c-16.8,0-26.5-11.4-26.5-27.3s10.2-27.7,26.7-27.7,26.6,11.5,26.6,27.7-9.9,27.3-26.8,27.3ZM511.9,83.7c10,0,15.7-7.5,15.7-19.1s-5.8-19.3-15.7-19.3-15.6,8.1-15.6,19.3,5.7,19.1,15.6,19.1Z"></path>
  <path fill="#0E2240" class="st0" d="M563.7,92.1c-12.2,0-18.3-7.5-18.3-21.1v-32.6h10.1v28.8c0,10.3,3.4,16.5,11.6,16.5s12.7-9.8,12.7-21.3v-24h10.1v44.5c0,2.7,0,5.3,0,7.9h-9.7v-7.5c-2.7,4.5-7.8,8.8-16.7,8.8Z"></path>
  <path fill="#0E2240" class="st0" d="M598.5,108.8V38.4h9.7v6.8c3-4.3,9-8.4,17.2-8.4,15,0,24.7,11.8,24.7,27.6s-9.9,27.5-24.4,27.5-14.3-3.3-17.3-7.8c0,.3.2,6,.2,12.3v12.3h-10.1ZM623.7,83.7c9.9,0,15.6-7.6,15.6-19.2s-5.8-19.3-15.6-19.3-15.6,8.1-15.6,19.3,5.8,19.2,15.6,19.2Z"></path>
</svg>