<?xml version="1.0"?>
<svg id="Mark" xmlns="http://www.w3.org/2000/svg" viewBox="0 0 97 91">
  
  <path fill="currentColor" class="st0" d="M10.4,78H2.6c-1.4,0-2.6,1.2-2.6,2.6v7.8c0,1.4,1.2,2.6,2.6,2.6h7.8c1.4,0,2.6-1.2,2.6-2.6v-7.8c0-1.4-1.2-2.6-2.6-2.6Z"></path>
  <path fill="currentColor" class="st0" d="M29.9,78h-7.8c-1.4,0-2.6,1.2-2.6,2.6v7.8c0,1.4,1.2,2.6,2.6,2.6h7.8c1.4,0,2.6-1.2,2.6-2.6v-7.8c0-1.4-1.2-2.6-2.6-2.6Z"></path>
  <path fill="currentColor" class="st0" d="M49.4,78h-7.8c-1.4,0-2.6,1.2-2.6,2.6v7.8c0,1.4,1.2,2.6,2.6,2.6h7.8c1.4,0,2.6-1.2,2.6-2.6v-7.8c0-1.4-1.2-2.6-2.6-2.6Z"></path>
  <path fill="currentColor" class="st0" d="M68.9,78h-7.8c-1.4,0-2.6,1.2-2.6,2.6v7.8c0,1.4,1.2,2.6,2.6,2.6h7.8c1.4,0,2.6-1.2,2.6-2.6v-7.8c0-1.4-1.2-2.6-2.6-2.6Z"></path>
  <path fill="currentColor" class="st0" d="M88.4,78h-7.8c-1.4,0-2.6,1.2-2.6,2.6v7.8c0,1.4,1.2,2.6,2.6,2.6h7.8c1.4,0,2.6-1.2,2.6-2.6v-7.8c0-1.4-1.2-2.6-2.6-2.6Z"></path>
  <path fill="currentColor" class="st0" d="M10.4,58.5H2.6c-1.4,0-2.6,1.2-2.6,2.6v7.8c0,1.4,1.2,2.6,2.6,2.6h7.8c1.4,0,2.6-1.2,2.6-2.6v-7.8c0-1.4-1.2-2.6-2.6-2.6Z"></path>
  <path fill="currentColor" class="st0" d="M49.4,58.5h-7.8c-1.4,0-2.6,1.2-2.6,2.6v7.8c0,1.4,1.2,2.6,2.6,2.6h7.8c1.4,0,2.6-1.2,2.6-2.6v-7.8c0-1.4-1.2-2.6-2.6-2.6Z"></path>
  <path fill="currentColor" class="st0" d="M68.9,58.5h-7.8c-1.4,0-2.6,1.2-2.6,2.6v7.8c0,1.4,1.2,2.6,2.6,2.6h7.8c1.4,0,2.6-1.2,2.6-2.6v-7.8c0-1.4-1.2-2.6-2.6-2.6Z"></path>
  <path fill="currentColor" class="st0" d="M88.4,58.5h-7.8c-1.4,0-2.6,1.2-2.6,2.6v7.8c0,1.4,1.2,2.6,2.6,2.6h7.8c1.4,0,2.6-1.2,2.6-2.6v-7.8c0-1.4-1.2-2.6-2.6-2.6Z"></path>
  <path fill="currentColor" class="st0" d="M10.4,39H2.6c-1.4,0-2.6,1.2-2.6,2.6v7.8c0,1.4,1.2,2.6,2.6,2.6h7.8c1.4,0,2.6-1.2,2.6-2.6v-7.8c0-1.4-1.2-2.6-2.6-2.6Z"></path>
  <path fill="currentColor" class="st0" d="M29.9,39h-7.8c-1.4,0-2.6,1.2-2.6,2.6v7.8c0,1.4,1.2,2.6,2.6,2.6h7.8c1.4,0,2.6-1.2,2.6-2.6v-7.8c0-1.4-1.2-2.6-2.6-2.6Z"></path>
  <path fill="currentColor" class="st0" d="M88.4,39h-7.8c-1.4,0-2.6,1.2-2.6,2.6v7.8c0,1.4,1.2,2.6,2.6,2.6h7.8c1.4,0,2.6-1.2,2.6-2.6v-7.8c0-1.4-1.2-2.6-2.6-2.6Z"></path>
  <path fill="currentColor" class="st0" d="M10.4,19.5H2.6c-1.4,0-2.6,1.2-2.6,2.6v7.8c0,1.4,1.2,2.6,2.6,2.6h7.8c1.4,0,2.6-1.2,2.6-2.6v-7.8c0-1.4-1.2-2.6-2.6-2.6Z"></path>
  <path fill="currentColor" class="st0" d="M49.4,19.5h-7.8c-1.4,0-2.6,1.2-2.6,2.6v7.8c0,1.4,1.2,2.6,2.6,2.6h7.8c1.4,0,2.6-1.2,2.6-2.6v-7.8c0-1.4-1.2-2.6-2.6-2.6Z"></path>
  <path fill="currentColor" class="st0" d="M68.9,19.5h-7.8c-1.4,0-2.6,1.2-2.6,2.6v7.8c0,1.4,1.2,2.6,2.6,2.6h7.8c1.4,0,2.6-1.2,2.6-2.6v-7.8c0-1.4-1.2-2.6-2.6-2.6Z"></path>
  <path fill="currentColor" class="st0" d="M29.9,0h-7.8c-1.4,0-2.6,1.2-2.6,2.6v7.8c0,1.4,1.2,2.6,2.6,2.6h7.8c1.4,0,2.6-1.2,2.6-2.6V2.6c0-1.4-1.2-2.6-2.6-2.6Z"></path>
  <path fill="currentColor" class="st0" d="M68.9,0h-7.8c-1.4,0-2.6,1.2-2.6,2.6v7.8c0,1.4,1.2,2.6,2.6,2.6h7.8c1.4,0,2.6-1.2,2.6-2.6V2.6c0-1.4-1.2-2.6-2.6-2.6Z"></path>
</svg>